<svg width="40" height="39" viewBox="0 0 40 39" fill="none" xmlns="http://www.w3.org/2000/svg">
<g clip-path="url(#clip0_2_37)">
<path d="M20 39C30.7696 39 39.5 30.2696 39.5 19.5C39.5 8.73045 30.7696 0 20 0C9.23045 0 0.5 8.73045 0.5 19.5C0.5 30.2696 9.23045 39 20 39Z" fill="#3B5998"/>
<path d="M24.9023 20.2634H21.4227V33.0108H16.151V20.2634H13.6437V15.7834H16.151V12.8844C16.151 10.8113 17.1357 7.565 21.4697 7.565L25.3747 7.58134V11.9299H22.5413C22.0766 11.9299 21.4231 12.1621 21.4231 13.151V15.7876H25.3629L24.9023 20.2634Z" fill="white"/>
</g>
<defs>
<clipPath id="clip0_2_37">
<rect width="39" height="39" fill="white" transform="translate(0.5)"/>
</clipPath>
</defs>
</svg>
