<svg width="40" height="39" viewBox="0 0 40 39" fill="none" xmlns="http://www.w3.org/2000/svg">
<g clip-path="url(#clip0_2_50)">
<path d="M20 38.999C30.7696 38.999 39.5 30.2685 39.5 19.499C39.5 8.72944 30.7696 -0.00100708 20 -0.00100708C9.23045 -0.00100708 0.5 8.72944 0.5 19.499C0.5 30.2685 9.23045 38.999 20 38.999Z" fill="#007AB9"/>
<path d="M31.651 21.0687V29.1082H26.9899V21.6075C26.9899 19.7242 26.317 18.4381 24.6293 18.4381C23.3415 18.4381 22.5764 19.3039 22.2385 20.1424C22.1158 20.442 22.0842 20.8581 22.0842 21.2783V29.1078H17.4228C17.4228 29.1078 17.4853 16.4042 17.4228 15.0892H22.0845V17.0758C22.0751 17.0914 22.0619 17.1067 22.0536 17.1217H22.0845V17.0758C22.7039 16.1227 23.8086 14.76 26.2853 14.76C29.3519 14.76 31.651 16.7636 31.651 21.0687ZM12.5466 8.33176C10.9521 8.33176 9.90892 9.3784 9.90892 10.7535C9.90892 12.0995 10.9218 13.1763 12.4854 13.1763H12.5156C14.1414 13.1763 15.1522 12.0995 15.1522 10.7535C15.1213 9.3784 14.1414 8.33176 12.5466 8.33176ZM10.186 29.1082H14.8456V15.0892H10.186V29.1082Z" fill="#F1F2F2"/>
</g>
<defs>
<clipPath id="clip0_2_50">
<rect width="39" height="39" fill="white" transform="translate(0.5)"/>
</clipPath>
</defs>
</svg>
