<svg width="130" height="104" viewBox="0 0 130 104" fill="none" xmlns="http://www.w3.org/2000/svg">
<path d="M56.1808 0.770613C61.0412 -0.0575163 65.8163 -0.236938 70.6403 0.323629C77.0522 1.06872 83.1453 2.78152 88.8376 5.77568C100.313 11.8119 108.419 20.7812 113.052 32.7382C115.558 39.2051 116.523 45.9138 116.241 52.8074C116.2 53.8184 116.334 54.9662 115.893 55.7976C115.378 56.766 114.076 56.15 113.141 56.274C110.85 56.5781 108.595 57.0115 106.232 57.6518C108.429 41.9364 103.792 28.7536 91.4128 18.5591C83.0345 11.6595 73.1599 8.65969 62.2884 9.38953C49.9355 10.2188 39.7603 15.4874 32.1211 25.0757C24.5142 34.6233 21.972 45.5394 23.8848 57.6366C22.5395 57.3299 21.3542 57.0369 20.1586 56.7925C18.4838 56.4502 16.7948 56.1585 15.0775 56.21C14.2552 56.2347 14.0445 55.8421 13.9844 55.1457C12.8588 42.1086 16.1721 30.2622 24.2401 19.8529C31.6255 10.3241 41.3742 4.162 53.2588 1.32142C54.1913 1.09853 55.1444 0.958552 56.1808 0.770613Z" fill="#202020"/>
<path d="M85.6855 39.9836C88.5044 40.3528 89.4788 41.4496 89.4802 44.1558C89.4818 47.0963 89.4847 50.0368 89.4838 52.9773C89.483 55.5217 88.1262 56.946 85.5695 56.947C82.0745 56.9482 78.5779 57.0535 75.0838 56.8672C73.9858 56.8086 73.6589 57.1005 73.6544 58.1856C73.6399 61.6861 73.6487 65.1868 73.6457 68.6874C73.6436 71.0997 72.3375 72.3787 69.879 72.3792C66.5964 72.3799 63.3138 72.3826 60.0312 72.377C57.7993 72.3731 56.4178 71.0572 56.4024 68.8556C56.3787 65.4602 56.4012 62.0644 56.4005 58.6688C56.4002 56.9754 56.38 56.9755 54.6893 56.9547C51.0877 56.9103 47.4817 57.1068 43.8851 56.8489C41.8654 56.7042 40.6343 55.5143 40.5853 53.5404C40.501 50.1468 40.5 46.7487 40.5745 43.3549C40.6207 41.2511 42.0434 40.0493 44.4227 39.9814C46.4191 39.9245 48.4185 39.9708 50.4165 39.9697C52.0221 39.9688 53.6282 39.94 55.2331 39.9735C56.0993 39.9915 56.4227 39.6737 56.4136 38.8049C56.3775 35.3396 56.3971 31.8738 56.3996 28.4083C56.4015 25.8075 57.6937 24.5323 60.3253 24.5318C63.5365 24.5313 66.7477 24.5296 69.9589 24.5363C72.3256 24.5413 73.6371 25.8404 73.6427 28.1954C73.651 31.731 73.6675 35.2669 73.6303 38.8021C73.6206 39.7273 73.8137 40.0394 74.8869 40.0095C78.4517 39.9099 82.0213 39.974 85.6855 39.9836Z" fill="#202020"/>
<path d="M21.8955 85.8912C32.4059 78.517 46.5984 79.0276 54.4594 82.6045C47.9167 83.5666 41.8787 85.1961 36.6386 88.9462C37.789 89.1009 38.8656 88.7102 39.9549 88.5341C44.076 87.8679 48.2105 87.4058 52.3916 87.4095C53.7238 87.4107 53.7864 87.5301 53.0965 88.6951C48.937 95.7194 43.0404 100.614 34.9821 102.802C30.9899 103.886 26.9151 104.142 22.8016 103.641C18.8449 103.159 15.078 102.017 11.4209 100.479C10.6679 100.162 10.4575 99.8608 10.8303 99.0749C13.3502 93.763 16.8923 89.2881 21.8955 85.8912ZM26.1835 101.242C32.5523 101.252 41.3536 98.3717 43.048 95.5096C40.347 96.84 37.7437 97.736 35.068 98.4318C32.3821 99.1303 29.6544 99.5905 26.8889 99.8224C24.1727 100.05 21.4527 100.229 18.7224 100.029C21.0868 100.829 23.5396 101.001 26.1835 101.242Z" fill="#61A551"/>
<path d="M92.2318 80.2304C102.106 81.2822 110.015 85.5718 115.862 93.3733C117.214 95.1776 118.313 97.1478 119.246 99.2023C119.507 99.7769 119.405 100.109 118.82 100.359C114.878 102.05 110.819 103.275 106.509 103.706C102.585 104.099 98.7368 103.795 94.9626 102.756C87.5119 100.707 81.8464 96.301 77.7102 89.9368C77.4034 89.4647 77.0955 88.992 76.8187 88.5029C76.3645 87.7005 76.5059 87.4247 77.4562 87.4218C80.1679 87.4134 82.873 87.5469 85.5662 87.8826C87.8288 88.1647 90.0896 88.4453 92.304 89.0101C92.6346 89.0944 93.0067 89.0218 93.3948 88.9232C88.1952 85.1481 82.1342 83.6088 75.8632 82.4673C81.1252 80.464 86.5217 79.6064 92.2318 80.2304ZM95.9432 100.275C101.041 101.591 106.116 101.526 111.413 100.029C106.918 100.224 102.696 99.9327 98.5124 99.2028C94.3443 98.4754 90.3627 97.14 86.4979 95.432C89.217 97.75 92.3452 99.2725 95.9432 100.275Z" fill="#61A551"/>
<path d="M101.275 72.3578C102.977 71.4711 104.611 70.6241 106.278 69.7602C105.327 69.3005 101.218 69.9868 98.4159 70.9739C95.9117 71.8559 93.544 73.0307 91.0914 74.2965C91.0201 73.534 91.4285 73.1404 91.7213 72.7444C96.601 66.1455 103.031 61.84 111.249 60.3356C117.224 59.2417 122.957 60.1795 128.404 62.7953C130.408 63.7574 130.344 63.7566 129.209 65.696C126.56 70.2221 123.072 73.9678 118.448 76.5635C111.766 80.3154 104.708 80.9175 97.3943 78.5689C96.3345 78.2286 95.2258 77.962 94.1745 77.1395C96.4175 75.2429 98.7928 73.7929 101.275 72.3578ZM109.45 77.2842C115.585 76.4236 121.622 72.0794 124.023 68.5772C118.739 72.6707 113.129 75.6454 106.796 77.2377C107.227 77.3579 107.623 77.3509 108.003 77.4236C108.448 77.509 108.849 77.3429 109.45 77.2842Z" fill="#61A551"/>
<path d="M6.72286 60.8884C15.5954 58.6175 23.6032 60.3896 30.9443 65.4356C33.952 67.503 36.4358 70.1022 38.499 73.0831C38.6914 73.361 38.9966 73.6008 38.9068 74.2212C34.1581 71.7148 29.3019 69.7048 23.8311 69.6336C28.018 71.8315 32.1218 74.1145 35.8697 77.1018C35.1597 77.8058 34.3123 77.993 33.5338 78.2695C22.5567 82.1674 11.0492 78.9308 3.77341 69.9182C2.44238 68.2695 1.26383 66.5275 0.231338 64.6798C-0.220934 63.8704 0.00685911 63.5078 0.766892 63.1521C2.66927 62.2617 4.59459 61.439 6.72286 60.8884ZM9.37929 72.1534C13.6787 75.5612 18.4744 77.6202 24.1259 77.3676C17.5379 75.9372 11.7182 72.9419 6.3581 68.9733C7.15348 70.1906 8.22365 71.1096 9.37929 72.1534Z" fill="#61A551"/>
<path d="M101.554 43.511C99.8431 37.8797 97.0082 32.9525 92.9752 28.7119C86.6487 22.0595 78.84 18.1179 69.673 16.9643C62.8637 16.1073 56.2392 17.0642 49.9219 19.8071C40.4782 23.9074 33.7795 30.6563 29.7452 39.959C29.1657 41.2951 28.7527 42.7007 28.233 44.1569C27.0817 40.2211 34.0064 27.4966 40.2223 22.4993C52.1882 12.8792 65.5619 10.5862 79.8587 16.4661C92.2627 21.5675 99.3836 31.1714 102.159 44.0485C101.611 44.0965 101.645 43.7949 101.554 43.511Z" fill="#B4DCB8"/>
<path d="M68.3702 79.8996C71.0912 81.527 72.1114 83.9285 71.6435 86.8293C71.2196 89.4581 69.5527 91.2217 66.9084 91.9846C63.2875 93.0292 59.4512 90.9184 58.5362 87.4048C57.5487 83.6127 59.8111 80.0077 63.6482 79.1886C65.3031 78.8354 66.8232 79.1505 68.3702 79.8996Z" fill="#61A551"/>
</svg>
